<svg xmlns="http://www.w3.org/2000/svg" width="20" height="18.762" viewBox="0 0 20 18.762">
  <g id="Group_130" data-name="Group 130" transform="translate(-1564.979 717.784) rotate(-90)">
    <path id="Subtraction_3" data-name="Subtraction 3" d="M10,8.381a10.118,10.118,0,0,1-3.555-.64A10.119,10.119,0,0,1,3.438,5.977,10.166,10.166,0,0,1,0,0H20a10.165,10.165,0,0,1-3.438,5.977,10.116,10.116,0,0,1-3.006,1.765A10.118,10.118,0,0,1,10,8.381Z" transform="translate(699.022 1584.979) rotate(-90)" fill="#3b39d9"/>
    <path id="Subtraction_4" data-name="Subtraction 4" d="M10,8.381a10.118,10.118,0,0,1-3.555-.64A10.119,10.119,0,0,1,3.438,5.977,10.166,10.166,0,0,1,0,0H20a10.165,10.165,0,0,1-3.438,5.977,10.116,10.116,0,0,1-3.006,1.765A10.118,10.118,0,0,1,10,8.381Z" transform="translate(709.403 1584.979) rotate(-90)" fill="#a4d92c"/>
  </g>
</svg>
