<svg xmlns="http://www.w3.org/2000/svg" width="18.904" height="20" viewBox="0 0 18.904 20">
  <g id="Group_151" data-name="Group 151" transform="translate(-16.566 -225.629)">
    <path id="Subtraction_5" data-name="Subtraction 5" d="M10,8.381a10.118,10.118,0,0,1-3.555-.64A10.119,10.119,0,0,1,3.438,5.977,10.166,10.166,0,0,1,0,0H20a10.165,10.165,0,0,1-3.438,5.977,10.116,10.116,0,0,1-3.006,1.765A10.118,10.118,0,0,1,10,8.381Z" transform="translate(16.566 245.629) rotate(-90)" fill="#3b39d9"/>
    <path id="Rectangle_711" data-name="Rectangle 711" d="M5.457,0h0a5.457,5.457,0,0,1,5.457,5.457V8.9a0,0,0,0,1,0,0H0a0,0,0,0,1,0,0V5.457A5.457,5.457,0,0,1,5.457,0Z" transform="translate(35.471 229.543) rotate(90)" fill="#fa9d17"/>
  </g>
</svg>
