<svg xmlns="http://www.w3.org/2000/svg" width="13.565" height="13.565" viewBox="0 0 13.565 13.565">
  <g id="phone-calling-rounded-svgrepo-com_1_" data-name="phone-calling-rounded-svgrepo-com (1)" transform="translate(-3.249 -1.185)">
    <path id="Path_3825" data-name="Path 3825" d="M14,2a6.142,6.142,0,0,1,3.333,2,6.142,6.142,0,0,1,2,3.333" transform="translate(-3.333)" fill="none" stroke="#3b39d9" stroke-linecap="round" stroke-width="1.5"/>
    <path id="Path_3826" data-name="Path 3826" d="M14.207,5.536a4.474,4.474,0,0,1,1.65,1.179,4.474,4.474,0,0,1,1.179,1.65" transform="translate(-3.402 -1.179)" fill="none" stroke="#3b39d9" stroke-linecap="round" stroke-width="1.5"/>
    <path id="Path_3827" data-name="Path 3827" d="M8.025,4.877l.433.775a1.888,1.888,0,0,1-.381,2.232h0s-.746.746.607,2.1,2.1.607,2.1.607h0a1.888,1.888,0,0,1,2.232-.381l.775.433a1.88,1.88,0,0,1,.253,3,3.091,3.091,0,0,1-2,1.021,7.448,7.448,0,0,1-5.6-2.441A7.449,7.449,0,0,1,4,6.622a3.092,3.092,0,0,1,1.021-2A1.88,1.88,0,0,1,8.025,4.877Z" transform="translate(0 -0.667)" fill="none" stroke="#3b39d9" stroke-linecap="round" stroke-width="1.5"/>
  </g>
</svg>
