<svg xmlns="http://www.w3.org/2000/svg" width="22" height="18.011" viewBox="0 0 22 18.011">
  <g id="Group_129" data-name="Group 129" transform="translate(0 -4.741)">
    <path id="Rectangle_695" data-name="Rectangle 695" d="M2.957,0h0A2.957,2.957,0,0,1,5.914,2.957V18.011a0,0,0,0,1,0,0H0a0,0,0,0,1,0,0V2.957A2.957,2.957,0,0,1,2.957,0Z" transform="translate(0 4.741)" fill="#fa9d17"/>
    <path id="Rectangle_696" data-name="Rectangle 696" d="M2.957,0h0A2.957,2.957,0,0,1,5.914,2.957V13.808a0,0,0,0,1,0,0H0a0,0,0,0,1,0,0V2.957A2.957,2.957,0,0,1,2.957,0Z" transform="translate(8.042 8.944)" fill="#3b39d9"/>
    <path id="Rectangle_709" data-name="Rectangle 709" d="M2.957,0h0A2.957,2.957,0,0,1,5.914,2.957V8.9a0,0,0,0,1,0,0H0a0,0,0,0,1,0,0V2.957A2.957,2.957,0,0,1,2.957,0Z" transform="translate(16.086 13.848)" fill="#3b39d9"/>
  </g>
</svg>
